HIERARCHY
ROOT Hips
{
	OFFSET -10.056300 7.733760 -472.550000
	CHANNELS 6 Xposition Yposition Zposition Zrotation Yrotation Xrotation 
	JOINT Spine
	{
		OFFSET 0.000000 0.000000 0.000000
		CHANNELS 3 Zrotation Yrotation Xrotation
		JOINT Spine1
		{
			OFFSET 19.000000 0.000000 0.000000
			CHANNELS 3 Zrotation Yrotation Xrotation
			JOINT Neck
			{
				OFFSET 22.500000 0.600000 0.000000
				CHANNELS 3 Zrotation Yrotation Xrotation
				JOINT Head
				{
					OFFSET 14.000000 0.030878 0.000000
					CHANNELS 3 Zrotation Yrotation Xrotation
					End Site
					{
						OFFSET 17.000000 0.000000 0.000000
					}
				}
			}
			JOINT LeftShoulder
			{
				OFFSET 19.800000 3.700000 4.300000
				CHANNELS 3 Zrotation Yrotation Xrotation
				JOINT LeftArm
				{
					OFFSET 8.000000 0.000000 0.000000
					CHANNELS 3 Zrotation Yrotation Xrotation
					JOINT LeftForeArm
					{
						OFFSET 15.200000 0.000000 0.000000
						CHANNELS 3 Zrotation Yrotation Xrotation
						JOINT LeftHand
						{
							OFFSET 17.800000 0.000000 0.000000
							CHANNELS 3 Zrotation Yrotation Xrotation
							End Site
							{
								OFFSET 7.200000 0.000000 0.000000
							}
						}
					}
				}
			}
			JOINT RightShoulder
			{
				OFFSET 19.800000 3.700000 -4.300000
				CHANNELS 3 Zrotation Yrotation Xrotation
				JOINT RightArm
				{
					OFFSET 8.000000 0.000000 0.151654
					CHANNELS 3 Zrotation Yrotation Xrotation
					JOINT RightForeArm
					{
						OFFSET 15.200000 0.000000 0.000000
						CHANNELS 3 Zrotation Yrotation Xrotation
						JOINT RightHand
						{
							OFFSET 17.800000 0.000000 0.000000
							CHANNELS 3 Zrotation Yrotation Xrotation
							End Site
							{
								OFFSET 7.200000 0.000000 0.000000
							}
						}
					}
				}
			}
		}
	}
	JOINT LeftUpLeg
	{
		OFFSET 5.984250 -7.666000 4.788790
		CHANNELS 3 Zrotation Yrotation Xrotation
		JOINT LeftLeg
		{
			OFFSET 16.000000 0.000000 0.000000
			CHANNELS 3 Zrotation Yrotation Xrotation
			JOINT LeftFoot
			{
				OFFSET 18.000000 0.000000 0.000000
				CHANNELS 3 Zrotation Yrotation Xrotation
				End Site
				{
					OFFSET 0.000000 -10.800000 0.000000
				}
			}
		}
	}
	JOINT RightUpLeg
	{
		OFFSET 5.984250 -7.665980 -4.788790
		CHANNELS 3 Zrotation Yrotation Xrotation
		JOINT RightLeg
		{
			OFFSET 16.000000 0.000000 0.000000
			CHANNELS 3 Zrotation Yrotation Xrotation
			JOINT RightFoot
			{
				OFFSET 18.000000 0.000000 0.000000
				CHANNELS 3 Zrotation Yrotation Xrotation
				End Site
				{
					OFFSET 0.000000 -10.800000 0.000000
				}
			}
		}
	}
	JOINT Tail
	{
		OFFSET 6.836960 -0.722574 0.000000
		CHANNELS 3 Zrotation Yrotation Xrotation
		JOINT Tail1
		{
			OFFSET 12.000000 0.000000 0.000000
			CHANNELS 3 Zrotation Yrotation Xrotation
			End Site
			{
				OFFSET 12.000000 0.000000 0.000000
			}
		}
	}
}
MOTION
Frames: 16
Frame Time: 0.033333
-4.864510 43.534100 -456.220000 -172.134232 69.043243 -171.678513 -173.738617 -10.610320 -2.146294 -2.760342 13.662861 -3.539995 -6.625018 1.703136 -2.172460 11.389976 5.412216 92.453346 32.222538 -31.713093 -127.321236 -58.964180 -59.589062 -179.122025 -65.222885 6.260032 -6.010641 -0.430266 -9.301426 1.229022 62.856644 34.278465 -27.291262 84.013863 -20.925089 -57.617355 -63.904156 0.701728 -17.901188 -12.683930 4.439440 0.009935 -132.035568 -10.358331 -9.943336 83.381248 8.018654 23.267061 32.974842 -7.620509 -4.357458 -112.575584 -1.286391 -5.038673 98.068085 -2.177812 -0.418180 40.289436 -2.171321 -0.423322 -11.794322 22.021307 23.599205 9.759513 3.100085 -29.520264 
-4.131060 43.727500 -454.801000 -173.317596 67.185188 -172.470383 -173.791000 -9.500163 -2.010637 -2.269183 14.479389 -3.696247 -7.438851 1.188834 -1.421616 11.375826 5.189602 92.775940 31.097195 -31.924305 -126.337486 -68.029083 -57.606354 -168.290176 -65.840073 4.981228 -0.448835 -5.468770 -11.759980 1.646080 63.652538 34.454582 -26.632067 83.304123 -20.827114 -58.380329 -61.518173 1.335280 -20.106995 -14.057727 3.452370 0.389767 -130.795654 -9.872120 -9.204043 84.262726 7.331486 23.471945 33.265903 -7.878930 -4.495645 -116.667450 -1.816968 -3.670408 100.548332 -2.479354 -0.123299 35.429092 -2.280544 -0.731175 -12.913541 25.127621 26.794533 9.087346 4.875024 -34.219040 
-3.350370 43.955800 -453.377000 -174.441666 65.535057 -172.707733 -174.085571 -8.378450 -1.512405 -1.572820 14.879856 -3.370933 -8.125228 1.031548 -1.014634 11.640779 4.671754 92.715256 31.117025 -31.942139 -126.351990 -73.597015 -53.972672 -160.573822 -69.229652 7.074275 -0.153087 -6.667281 -10.504786 1.292374 63.708096 34.519405 -26.587032 83.422005 -20.922735 -58.545311 -59.510384 1.666696 -19.944395 -13.665797 2.335725 0.701765 -129.476059 -9.909511 -8.048150 84.943672 6.653842 23.617336 33.396755 -8.088691 -4.591838 -121.500969 -2.378192 -1.999903 102.245430 -2.766672 -0.506359 32.898220 -2.247507 -0.841989 -13.993596 28.117443 29.298861 8.161901 6.535021 -38.669815 
-2.532560 44.158500 -451.957000 -175.016830 63.816982 -172.450012 -174.114426 -6.944878 -0.922614 -0.958526 14.907763 -2.905795 -8.632828 0.848305 -0.982547 11.724471 4.820739 92.837631 30.934946 -31.970034 -126.193268 -77.219513 -53.099903 -155.647934 -69.839928 6.599249 2.749863 -8.613420 -10.704349 1.290032 63.027164 34.862286 -27.161600 83.315399 -21.256304 -60.368172 -56.600056 2.194921 -18.264072 -12.946259 3.852642 0.219393 -127.932236 -9.798624 -6.789501 85.479187 5.858063 23.808352 34.046501 -8.287273 -4.703928 -126.117889 -2.522352 -0.138650 103.097343 -3.040978 -0.590952 29.445309 -2.286940 -1.017621 -14.434298 30.536531 31.232162 7.256515 8.011611 -42.168907 
-1.679960 44.393300 -450.579000 -174.974258 61.884090 -171.852676 -173.414413 -5.022266 -0.463512 -1.128396 14.468513 -2.627342 -8.738803 0.896013 -0.986222 12.369602 4.508344 92.631531 31.126505 -31.989538 -126.354492 -80.050323 -52.300297 -150.420212 -69.677719 5.360241 3.854069 -9.569160 -13.153619 1.953204 62.807228 35.436043 -27.357634 82.749382 -21.078827 -61.773991 -54.082104 2.094838 -17.571724 -12.044948 3.359879 0.398434 -125.780251 -9.263575 -5.658249 85.473335 4.916604 23.999725 34.509541 -8.432805 -4.794626 -130.073456 -1.317616 1.976623 102.571594 -3.584761 -1.944045 28.675329 -2.109401 -0.965216 -14.031631 32.403175 32.738239 6.491573 9.330518 -44.554035 
-0.817745 44.583100 -449.200000 -174.650803 60.030052 -170.714630 -172.333511 -2.881216 0.090058 -1.833263 13.511904 -2.255942 -8.091380 1.160772 -1.208228 12.520267 4.489541 92.506523 31.460447 -32.066048 -126.629990 -84.674026 -50.373077 -143.837219 -70.189400 4.387718 7.673744 -12.445055 -12.729470 1.921525 61.814392 35.144241 -28.180882 83.274696 -20.578253 -63.203815 -52.592976 1.820825 -16.448839 -10.091631 1.852398 0.781659 -123.423409 -9.485524 -4.412569 85.671768 4.171505 24.056141 34.666950 -8.617881 -4.887817 -133.535934 -0.308997 4.248002 101.045830 -4.249204 -2.627688 28.379795 -1.997054 -0.935310 -13.236038 33.505066 32.392677 5.820241 10.619019 -44.966496 
0.054846 44.787200 -447.831000 -174.286179 58.178108 -169.535934 -171.201965 -0.763330 0.748280 -2.606092 12.652946 -1.830775 -7.310845 1.126096 -1.241640 13.138273 4.022468 92.143250 32.793022 -31.949615 -127.779266 -88.006668 -48.592728 -139.971039 -70.386887 3.440125 8.755851 -14.437939 -14.915735 2.685199 60.264400 35.508316 -29.487442 84.824661 -20.811337 -63.751328 -52.589180 1.800259 -13.697191 -6.424165 -0.847345 1.124743 -120.785690 -10.038179 -3.216987 85.404274 3.606995 24.345844 35.190598 -8.821094 -5.014541 -135.996964 1.194766 6.448117 97.605629 -5.380398 -5.438041 30.155844 -1.514817 -0.599386 -11.995962 33.720325 30.007246 5.859331 11.759094 -42.787952 
0.895680 44.948500 -446.465000 -173.387009 56.350769 -168.105164 -169.881119 1.524619 1.498521 -3.199330 11.354227 -1.259545 -6.442255 1.493860 -1.610077 13.582990 3.536437 91.509125 34.729481 -31.633394 -129.459869 -90.334457 -47.329975 -137.207703 -70.143753 2.712769 10.331705 -16.583164 -15.694623 3.100824 57.919228 36.141556 -31.475811 88.409485 -22.007072 -62.154842 -56.623268 1.973305 -7.329650 4.150857 -8.938191 1.078296 -117.667229 -10.498702 -2.099767 85.049431 3.070743 24.900282 35.897789 -9.090185 -5.191476 -137.870605 2.757250 8.082509 93.939522 -6.559685 -6.384337 32.712311 -1.332970 -0.383160 -9.698962 33.218567 24.611681 6.713075 12.694066 -36.729950 
1.710510 45.078600 -445.084000 -173.085236 54.844746 -167.338257 -169.033646 3.780270 2.082172 -3.537960 9.752388 -0.786889 -5.436537 1.914697 -1.720951 13.931528 3.125253 91.137405 36.968361 -31.299067 -131.388245 -91.985336 -45.898148 -135.719360 -69.880623 2.278721 11.832691 -18.846296 -16.055111 3.421501 55.779320 36.051685 -33.271168 88.823273 -21.857195 -60.654980 -64.233971 -0.159170 -0.225255 13.665829 -12.537150 -0.283910 -114.687218 -11.080585 -1.330640 84.118362 2.646920 25.188644 36.608547 -9.180887 -5.271204 -139.707260 3.288193 8.680521 89.188499 -7.510032 -5.772614 36.411465 -1.336442 -0.195718 -7.504357 32.073242 17.584274 8.632322 13.500099 -28.492863 
2.475010 45.170000 -443.742000 -172.552872 53.624039 -166.476791 -168.121536 5.747790 2.559115 -3.928494 8.017956 -0.368529 -4.332780 2.208076 -1.507620 14.395282 2.691446 90.991089 39.413021 -31.139364 -133.461288 -92.479118 -43.872620 -134.961624 -69.800087 2.319012 12.592982 -20.385042 -16.465389 3.704872 53.937809 36.342342 -34.835403 85.230515 -22.487020 -61.683140 -69.708916 -1.357665 3.667581 24.564978 -19.514954 -2.415643 -111.508575 -11.822289 -0.680453 82.989609 2.305244 25.506018 37.027649 -9.211899 -5.301414 -141.125320 4.087724 8.874347 84.683578 -8.613555 -4.834081 39.488503 -1.388730 -0.029038 -5.077145 30.519060 9.751040 11.078573 13.720822 -19.212818 
3.186480 45.157000 -442.392000 -171.964508 52.732128 -165.769104 -167.949158 7.058465 2.812170 -3.588772 6.760923 -0.079098 -2.815747 2.546359 -1.382816 13.548710 2.397723 90.855827 41.394108 -30.835146 -135.149780 -92.240128 -41.648262 -134.083893 -69.107849 2.270083 12.897096 -21.400232 -17.122465 4.024081 52.430481 36.673084 -36.124802 79.131996 -21.945389 -61.765438 -75.692078 -3.115678 2.096130 32.018177 -31.857634 -5.124504 -108.716164 -12.652864 -0.355325 82.430931 2.092805 25.527748 37.875389 -9.159463 -5.284226 -142.239471 4.251726 8.350904 79.957657 -9.496645 -5.432703 42.992752 -1.196710 0.332548 -2.671222 28.438669 2.768531 13.717802 13.771246 -10.588642 
3.795130 45.104200 -441.098000 -171.112000 51.906277 -165.191772 -168.078445 8.306812 2.846255 -2.677435 5.557169 0.025458 -1.449090 2.485152 -1.147449 12.536546 2.689304 91.216095 42.907200 -30.670834 -136.428131 -91.854164 -40.236938 -133.633804 -67.844376 2.347963 13.204185 -22.319262 -17.369091 4.231350 50.720512 36.432865 -37.556297 73.868065 -24.259737 -58.208706 -81.082054 -4.666441 0.426002 39.097401 -43.864582 -9.530105 -105.645760 -13.209186 -0.241718 81.517288 1.888635 26.080532 38.925293 -9.108929 -5.300015 -142.874023 4.748433 7.482899 75.798775 -10.224627 -6.441365 45.826183 -0.942901 0.723987 -0.092510 25.946255 -2.606675 16.209290 13.206934 -3.481788 
4.286440 45.016700 -439.854000 -169.895386 51.184643 -164.732727 -168.221008 9.311000 2.883948 -1.454055 4.603248 0.130148 -0.555806 2.448648 -1.291419 11.996777 2.826580 91.138016 44.124615 -30.099710 -137.490234 -92.133110 -39.859188 -133.142273 -66.642143 2.072271 13.441455 -22.591518 -16.992279 4.176114 48.094578 35.953678 -39.746162 71.121712 -26.880354 -52.123802 -86.729362 -6.831065 -2.087767 34.172771 -49.438717 -7.861554 -102.348755 -13.528297 -0.449896 80.399727 1.810653 26.841074 40.148167 -9.081365 -5.347116 -143.415298 5.079456 6.273916 72.898781 -10.364820 -6.538732 47.890354 -0.897687 0.909045 2.711203 22.813227 -6.212842 18.285917 12.530383 1.989117 
4.707310 44.915400 -438.643000 -168.465973 50.645493 -164.223022 -168.158554 10.308255 2.978446 -0.729598 3.294222 0.309018 0.806155 2.421984 -1.838663 11.218568 3.434937 91.066132 46.108921 -29.374992 -139.193298 -91.651825 -39.116642 -133.226959 -65.384064 2.018063 13.280888 -22.926390 -17.142473 4.336766 46.298431 35.912178 -41.263798 69.559616 -31.186119 -46.934826 -91.576065 -7.496650 4.336698 35.063717 -41.181007 -7.387331 -99.104004 -14.098386 -0.963378 79.436577 1.973137 27.352272 41.508808 -9.068375 -5.398340 -143.731781 4.587334 5.040949 70.878403 -9.700031 -5.500191 50.029388 -1.135018 0.838396 5.208369 19.379955 -7.910952 19.597197 11.941416 5.132487 
5.091460 44.859700 -437.491000 -166.940094 50.269115 -163.776871 -167.712692 11.544183 3.076779 -0.684287 1.223820 0.518671 2.437704 3.229436 -2.616588 10.014793 3.436307 90.393166 48.493214 -28.537439 -141.219482 -90.474220 -38.060734 -133.806351 -63.781422 1.837167 14.583061 -23.262869 -15.708406 3.839916 45.685745 36.316013 -41.813618 66.444695 -36.041553 -39.629440 -93.004890 -9.067528 5.589903 27.711273 -36.011890 -3.825621 -95.950752 -14.516098 -1.778595 78.395721 2.268560 27.485256 43.354698 -8.972632 -5.411191 -142.923340 4.651764 4.413757 68.659477 -9.365414 -4.680302 53.242580 -1.311861 0.834820 7.197467 15.633691 -7.722765 19.906422 11.640018 5.948440 
5.485530 44.841600 -436.318000 -165.443512 50.327896 -163.327026 -167.376450 12.525328 3.125774 -0.465365 -0.920624 0.746025 3.547022 3.644827 -3.505199 9.065954 4.045036 90.083656 50.779408 -27.992561 -143.130676 -88.711632 -37.157040 -133.792267 -61.936085 1.736644 14.217167 -23.346737 -15.987354 4.037879 45.011806 35.930023 -42.356125 62.747696 -40.542633 -31.309275 -92.050529 -10.660128 6.670470 20.012852 -27.972870 -0.819803 -92.814713 -14.761408 -2.962603 77.150673 2.727610 27.329241 45.608421 -8.826888 -5.402542 -141.267273 3.974063 3.885687 66.470978 -8.542238 -2.995116 56.353317 -1.590033 0.723638 8.338034 12.053712 -5.913580 19.080238 11.375567 4.498508 
